<?xml version="1.0" encoding="UTF-8"?>
<svg width="221px" height="65px" viewBox="0 0 221 65" version="1.1" xmlns="http://www.w3.org/2000/svg" xmlns:xlink="http://www.w3.org/1999/xlink">
    <!-- Generator: Sketch 47 (45286) - http://www.bohemiancoding.com/sketch -->
    <title>Artboard</title>
    <desc>Created with Sketch.</desc>
    <defs></defs>
    <g id="Page-1" stroke="none" stroke-width="1" fill="none" fill-rule="evenodd">
        <g id="Artboard" fill-rule="nonzero" fill="#404553">
            <g id="noon_logo_black_arabic">
                <path d="M156.289087,33.9191667 C156.289087,51.2795833 171.045712,64.7670833 188.205712,64.7670833 C206.166837,64.7670833 220.722504,50.2780417 220.722504,32.5828583 C220.722504,22.2343333 215.714796,13.1538333 208.303171,7.07741667 L202.894629,16.4255 C207.368254,20.23125 210.440046,26.10725 210.440046,32.7172083 C210.440046,44.7357083 200.491254,54.617875 188.205712,54.617875 C175.986254,54.617875 166.037463,44.7357083 166.037463,32.3835417 C166.037463,30.9145417 166.171254,29.4455417 166.438296,28.0431667 L156.289087,33.9191667 Z M198.220587,1.60225 C195.149338,0.467458333 192.411754,-1.42108547e-14 189.674171,-1.42108547e-14 C187.604462,-1.42108547e-14 185.801254,0.267041667 184.466587,0.534083333 L177.521879,12.5525833 C180.059587,11.0835833 183.331254,10.2824583 186.869962,10.2824583 C188.928671,10.2824583 190.808962,10.5495 192.745962,11.0835833 L198.220587,1.60225 Z" id="Fill-1"></path>
                <path d="M56.4218958,35.7761625 C54.8570208,33.9112042 54.2330208,31.5322042 54.6652708,29.0789958 C55.2345625,25.8425375 57.8936042,23.1834958 61.1300625,22.6142042 C63.5767708,22.1803292 65.9622708,22.8043292 67.8272292,24.3708292 C69.6672708,25.9151208 70.7229792,28.1782042 70.7229792,30.5772458 L70.7229792,38.6719125 L62.6283125,38.6719125 C60.2292708,38.6719125 57.9667292,37.6162042 56.4218958,35.7761625 L56.4218958,35.7761625 Z M118.421604,44.8967458 C126.533604,44.8967458 133.134354,38.2959958 133.134354,30.1828958 L133.134354,21.9094958 L126.909521,21.9094958 L126.909521,30.1828958 C126.909521,34.8645375 123.102146,38.6719125 118.421604,38.6719125 L76.9483542,38.6719125 L76.9483542,30.5772458 C76.9483542,26.3332875 75.0812292,22.3341625 71.8279792,19.6036208 C68.5763542,16.8747042 64.2841875,15.7404542 60.0494375,16.4847042 C54.1945625,17.5160375 49.5665625,22.1434958 48.5357708,27.9989125 C47.7898958,32.2331208 48.9263125,36.5269125 51.6546875,28.7769125 C54.3846875,43.0307042 58.3843542,44.8967458 62.6283125,44.8967458 L70.6742292,44.8967458 C70.1813125,51.0376208 65.0381875,55.8844542 58.7727292,55.8844542 L58.7727292,62.1098292 C68.4696458,62.1098292 76.2842292,54.4701625 76.8996042,44.8967458 L118.421604,44.8967458 Z" id="Fill-3"></path>
                <g id="Group-7" transform="translate(0.000000, 21.433750)">
                    <path d="M36.3506542,0.511658333 L30.1252792,0.511658333 L30.1252792,13.8686167 C30.1252792,20.459075 24.7654875,25.8188667 18.1750292,25.8188667 C11.5851125,25.8188667 6.22532083,20.459075 6.22532083,13.8686167 L6.22532083,0.511658333 L-5.41666667e-05,0.511658333 L-5.41666667e-05,13.8686167 C-5.41666667e-05,23.8905333 8.15365417,32.0437 18.1750292,32.0437 C28.1969458,32.0437 36.3506542,23.8905333 36.3506542,13.8686167 L36.3506542,0.511658333 Z" id="Fill-5"></path>
                </g>
                <path d="M18.1749208,15.0134833 C20.0794208,15.0134833 21.6231708,13.4697333 21.6231708,11.5652333 C21.6231708,9.66073333 20.0794208,8.11698333 18.1749208,8.11698333 C16.2704208,8.11698333 14.7266708,9.66073333 14.7266708,11.5652333 C14.7266708,13.4697333 16.2704208,15.0134833 18.1749208,15.0134833" id="Fill-8"></path>
                <path d="M118.942092,15.0134833 C120.846592,15.0134833 122.280342,13.4697333 122.280342,11.5652333 C122.280342,9.66073333 120.846592,8.11698333 118.942092,8.11698333 C117.037592,8.11698333 115.493842,9.66073333 115.493842,11.5652333 C115.493842,13.4697333 117.037592,15.0134833 118.942092,15.0134833" id="Fill-10"></path>
            </g>
        </g>
    </g>
</svg>